# xmcd
#
# Track frame offsets:
#	150
#	18831
#	32871
#	53451
#	70459
#	87416
#	102224
#	115059
#	134005
#	149703
#	169666
#	193314
#
# Disc length: 2776 seconds
#
# Revision: 0
# Processed by: cddbd v1.5.2PL0 Copyright (c) Steve Scherf et al.
# Submitted via: EZCDAudioConverter 5.5.0.1
#
DISCID=ae0ad60c
DTITLE=Inma Serrano - Grandes Éxitos
DYEAR=2004
DGENRE=Balada
TTITLE0=Cantos de sirena 
TTITLE1=Tú eres la única verdad
TTITLE2=De sobra lo sabes 
TTITLE3=Seré tu amiga
TTITLE4=La Ola
TTITLE5=Duermo
TTITLE6=Sálvame
TTITLE7=Solo hace días que te conozco
TTITLE8=Se Prometió
TTITLE9=Te hecho de Menos
TTITLE10=Una vez mas
TTITLE11=Acabaré
EXTD=
EXTT0=
EXTT1=
EXTT2=
EXTT3=
EXTT4=
EXTT5=
EXTT6=
EXTT7=
EXTT8=
EXTT9=
EXTT10=
EXTT11=
PLAYORDER=
